<svg id="_889376_barista_coffee_doppio_espresso_icon" data-name="889376_barista_coffee_doppio_espresso_icon" xmlns="http://www.w3.org/2000/svg" width="29.907" height="30" viewBox="0 0 29.907 30">
  <path id="Path_490" data-name="Path 490" d="M88.107,132.74H86.8c.2-1.185.316-2.212.4-3A1.577,1.577,0,0,0,85.619,128H62.156a1.6,1.6,0,0,0-1.58,1.738c.513,5.194,2.9,20.382,13.311,20.382,5.688,0,8.966-4.523,10.882-9.48h1.758s1.975,0,2.37-1.185l1.58-3.555C90.477,134.241,89.648,132.74,88.107,132.74ZM79.24,146.486a8,8,0,0,1-10.7,0,15.417,15.417,0,0,1-3.575-5.234,40.249,40.249,0,0,1-2.8-11.652H85.619a41.017,41.017,0,0,1-2.8,11.672A15.518,15.518,0,0,1,79.24,146.486Zm8.216-7.663a.069.069,0,0,1-.02.04,2.215,2.215,0,0,1-.909.2h-.691l1.3-4.74h.968c.494,0,.711.691.77,1.284Z" transform="translate(-60.57 -120.12)" fill="#344a5d"/>
  <path id="Path_491" data-name="Path 491" d="M116,92.425a.336.336,0,0,0,.02.138c.02.1.02.2.04.3.039.178.079.336.118.494a5.5,5.5,0,0,0,.276.691c.04.079.079.138.1.178a.244.244,0,0,0,.04.059.2.2,0,0,0,.2.1.2.2,0,0,0,.158-.237v-.02s-.02-.1-.039-.257-.059-.395-.1-.671a2.959,2.959,0,0,1-.04-.434v-.454a.811.811,0,0,1,.138-.336c.079-.118.2-.237.336-.434a2.518,2.518,0,0,0,.2-.336c.02-.059.039-.118.059-.2a.7.7,0,0,0,.039-.2.855.855,0,0,1,.02-.1v-.178h0V90.47a1.525,1.525,0,0,0-.039-.3,7.944,7.944,0,0,0-.217-1.007c-.079-.3-.178-.514-.237-.691-.059-.158-.1-.257-.1-.257h0a.217.217,0,0,0-.2-.118.212.212,0,0,0-.178.217s.02.1.039.257.04.415.079.691.059.612.079.948v.257c0,.02-.02.2-.02.217a1.363,1.363,0,0,0-.059.158.8.8,0,0,1-.1.178c-.1.118-.237.277-.375.474a1.428,1.428,0,0,0-.217.731v.158Z" transform="translate(-105.053 -88.1)" fill="#344a5d"/>
  <path id="Path_492" data-name="Path 492" d="M124,92.386v.04a.336.336,0,0,0,.02.138c.02.1.02.2.039.3.039.178.079.336.118.494a5.5,5.5,0,0,0,.277.691c.039.079.079.138.1.178a.245.245,0,0,0,.039.059.2.2,0,0,0,.2.1.2.2,0,0,0,.158-.237v-.02s-.02-.1-.039-.257-.059-.395-.1-.671a2.958,2.958,0,0,1-.04-.434v-.454a.811.811,0,0,1,.138-.336c.079-.118.2-.237.336-.434a2.518,2.518,0,0,0,.2-.336c.02-.059.04-.118.059-.2a.7.7,0,0,0,.039-.2.855.855,0,0,1,.02-.1v-.178h0V90.47a1.524,1.524,0,0,0-.04-.3,7.945,7.945,0,0,0-.217-1.007c-.079-.3-.178-.514-.237-.691-.059-.158-.1-.257-.1-.257h0a.217.217,0,0,0-.2-.118.212.212,0,0,0-.178.217s.02.1.04.257.039.415.079.691.059.612.079.948v.257c0,.02-.02.2-.02.217a1.359,1.359,0,0,0-.059.158.8.8,0,0,1-.1.178c-.1.118-.237.277-.375.474a1.428,1.428,0,0,0-.217.731v.1C124,92.366,124,92.366,124,92.386Z" transform="translate(-111.473 -88.1)" fill="#344a5d"/>
  <path id="Path_493" data-name="Path 493" d="M132,92.386v.04a.336.336,0,0,0,.02.138c.02.1.02.2.04.3.04.178.079.336.118.494a5.5,5.5,0,0,0,.277.691c.039.079.079.138.1.178a.245.245,0,0,0,.039.059.2.2,0,0,0,.2.1.2.2,0,0,0,.158-.237v-.02s-.02-.1-.04-.257-.059-.395-.1-.671a2.959,2.959,0,0,1-.039-.434v-.454a.811.811,0,0,1,.138-.336c.079-.118.2-.237.336-.434a2.518,2.518,0,0,0,.2-.336c.02-.059.04-.118.059-.2a.7.7,0,0,0,.039-.2.855.855,0,0,1,.02-.1v-.178h0V90.47a1.525,1.525,0,0,0-.039-.3,7.944,7.944,0,0,0-.217-1.007c-.079-.3-.178-.514-.237-.691-.059-.158-.1-.257-.1-.257h0a.217.217,0,0,0-.2-.118.212.212,0,0,0-.178.217s.02.1.04.257.039.415.079.691.059.612.079.948v.257c0,.02-.02.2-.02.217a1.36,1.36,0,0,0-.059.158.8.8,0,0,1-.1.178c-.1.118-.237.277-.375.474a1.428,1.428,0,0,0-.217.731v.1C132,92.366,132,92.366,132,92.386Z" transform="translate(-117.893 -88.1)" fill="#344a5d"/>
  <path id="Path_494" data-name="Path 494" d="M97.944,152H80.406a.781.781,0,0,0-.77.928,35.444,35.444,0,0,0,1.738,6.162c1.916,4.8,4.463,7.13,7.8,7.13s5.885-2.33,7.8-7.13a32.276,32.276,0,0,0,1.738-6.162A.781.781,0,0,0,97.944,152Z" transform="translate(-75.857 -139.38)" fill="#3f8ece"/>
</svg>
