<svg xmlns="http://www.w3.org/2000/svg" width="17.445" height="19.938" viewBox="0 0 17.445 19.938">
  <path id="Icon_awesome-passport" data-name="Icon awesome-passport" d="M5.048,6.854H6.57a8.787,8.787,0,0,1,.553-2.742A3.732,3.732,0,0,0,5.048,6.854Zm0,1.246a3.733,3.733,0,0,0,2.076,2.742A8.776,8.776,0,0,1,6.57,8.1H5.048Zm3.675,3.064A5.3,5.3,0,0,0,9.635,8.1H7.81a5.3,5.3,0,0,0,.913,3.064ZM7.81,6.854H9.636a5.3,5.3,0,0,0-.912-3.064A5.3,5.3,0,0,0,7.81,6.854Zm2.512,3.988A3.732,3.732,0,0,0,12.4,8.1H10.876A8.776,8.776,0,0,1,10.322,10.841ZM16.2,0H2.492A2.492,2.492,0,0,0,0,2.492V17.445a2.492,2.492,0,0,0,2.492,2.492H16.2a1.246,1.246,0,0,0,1.246-1.246V1.246A1.246,1.246,0,0,0,16.2,0ZM13.084,16.2H4.361a.623.623,0,0,1,0-1.246h8.723a.623.623,0,0,1,0,1.246ZM8.723,12.461a4.984,4.984,0,1,1,4.984-4.984A4.985,4.985,0,0,1,8.723,12.461Zm1.6-8.349a8.776,8.776,0,0,1,.553,2.742H12.4a3.732,3.732,0,0,0-2.076-2.742Z"/>
</svg>
