<svg xmlns="http://www.w3.org/2000/svg" width="73.35" height="68.45" viewBox="0 0 73.35 68.45">
  <g id="Group_297" data-name="Group 297" transform="translate(-564.324 -1557.463)">
    <path id="Path_3" data-name="Path 3" d="M0,28.453a14.66,14.66,0,0,0,7.2,3.5,16.985,16.985,0,0,0,2.732.236c6.059.021,12.118.011,18.178.011h1.225c0,.757,0,1.46,0,2.163a2.476,2.476,0,0,0,2.683,2.724q4.622.008,9.243,0A2.47,2.47,0,0,0,44,34.349c0-.683,0-1.367,0-2.145h.937c6.009,0,12.018-.033,18.027.011A15.021,15.021,0,0,0,72.927,28.8c.093-.076.2-.143.378-.276.014.351.037.615.037.88q0,10.921,0,21.84c0,3.43-1.972,5.4-5.4,5.4q-31.355,0-62.712,0A4.892,4.892,0,0,1,0,51.449Q0,40.377,0,29.3v-.85" transform="translate(564.324 1569.267)" fill="#3f8ece"/>
    <path id="Path_4" data-name="Path 4" d="M36.669,13.829q15.659,0,31.317,0c3.367,0,5.367,1.992,5.35,5.369a48.808,48.808,0,0,1-.151,5.868,9.615,9.615,0,0,1-9.625,8.311c-7.179.023-14.36.007-21.539.006q-15.888,0-31.775,0C4.174,33.381,0,29.185,0,23.1c0-1.348,0-2.7,0-4.047a4.9,4.9,0,0,1,5.2-5.22q15.735,0,31.47,0" transform="translate(564.324 1563.2)" fill="#3f8ece"/>
    <path id="Path_5" data-name="Path 5" d="M48.056,14.644H38.3V9.836H23.63v4.787H13.819c.144-2.52-.316-5.065.406-7.557a9.719,9.719,0,0,1,9.3-7.045q7.445-.04,14.889,0a9.757,9.757,0,0,1,9.64,9.648c.017,1.627,0,3.256,0,4.973" transform="translate(570.052 1557.463)"/>
  </g>
</svg>
