<svg xmlns="http://www.w3.org/2000/svg" xmlns:xlink="http://www.w3.org/1999/xlink" width="30" height="30" viewBox="0 0 30 30">
  <defs>
    <clipPath id="clip-path">
      <rect id="Rectangle_145" data-name="Rectangle 145" width="30" height="30" fill="#344a5d"/>
    </clipPath>
  </defs>
  <g id="Group_342" data-name="Group 342" transform="translate(0 0)">
    <g id="Group_203" data-name="Group 203" transform="translate(0 0)" clip-path="url(#clip-path)">
      <path id="Path_505" data-name="Path 505" d="M12.48,0h1.29c.256.05.513.093.767.15a6.831,6.831,0,0,1,5.177,8.405,12.833,12.833,0,0,1-2.6,5.217.442.442,0,0,0-.119.321,3.332,3.332,0,0,0,2.119,2.36c1.071.358,2.147.706,3.22,1.058.1.031.188.068.3.11a2.4,2.4,0,0,0-.627,1.552q.044.892.1,1.783c.147,2.523.3,5.045.442,7.569A2.494,2.494,0,0,0,23.027,30H2.168a.755.755,0,0,0-.127-.058A2.113,2.113,0,0,1,.4,28.005C.291,26.851.2,25.7.108,24.539Q.054,23.871,0,23.2v-1a1.075,1.075,0,0,0,.051-.165,5.14,5.14,0,0,1,1.566-3.007,9.654,9.654,0,0,1,4.972-2.442,3.278,3.278,0,0,0,2.543-2.168.361.361,0,0,0-.043-.3A11.9,11.9,0,0,1,6.366,7.491,6.792,6.792,0,0,1,11.343.241C11.715.138,12.1.079,12.48,0M7.452,8.58A10.513,10.513,0,0,0,9.9,13.6a4.017,4.017,0,0,0,5.827.272,11.276,11.276,0,0,0,2.966-5.129.466.466,0,0,0,0-.113A8.816,8.816,0,0,1,13.345,2.8,8.629,8.629,0,0,1,7.452,8.58m-.545,8.9c.6,1.3,1.182,2.561,1.766,3.825q1.727,3.744,3.449,7.491a.386.386,0,0,0,.436.273,8.246,8.246,0,0,1,.995,0,.336.336,0,0,0,.371-.239q2.66-5.552,5.331-11.1c.036-.075.062-.155.1-.249a3.93,3.93,0,0,1-1.944-.949,4.938,4.938,0,0,1-1.2-1.806,4.966,4.966,0,0,1-6.259.208,4.082,4.082,0,0,1-3.044,2.543" transform="translate(0 0)" fill="#344a5d"/>
      <path id="Path_506" data-name="Path 506" d="M27.455,31.154c-.29-.077-.589-.132-.869-.238a1.213,1.213,0,0,1-.833-1.182c-.157-2.914-.29-5.831-.53-8.738a2.406,2.406,0,0,1,1.3-2.407,1.191,1.191,0,0,0,.646-1.2c-.036-.554.008-1.113-.018-1.669a2.167,2.167,0,0,0-.191-.549,1.008,1.008,0,0,1-.087-.3c-.011-.507-.015-1.015-.006-1.522a.442.442,0,0,1,.48-.476q1.376-.011,2.753,0a.464.464,0,0,1,.508.487c.012.488.013.977-.008,1.464a1.81,1.81,0,0,1-.157.421,1.5,1.5,0,0,0-.1.419c-.01.684-.006,1.367,0,2.05a.828.828,0,0,0,.461.76,3.476,3.476,0,0,1,1.465,1.546v1.113a2.039,2.039,0,0,0-.046.254c-.162,2.774-.331,5.547-.475,8.321a1.247,1.247,0,0,1-.888,1.234,8.749,8.749,0,0,1-.875.211Zm3.69-7.513c.056-.918.065-1.81.176-2.688a1.416,1.416,0,0,0-.656-1.443c-.118-.086-.239-.17-.364-.244a1.747,1.747,0,0,1-.9-1.6c0-.683-.012-1.365,0-2.048a1.477,1.477,0,0,1,.134-.651,2.363,2.363,0,0,0,.131-1.137H27.806a2.164,2.164,0,0,0,.162,1.184,1.419,1.419,0,0,1,.123.652c.015.654.005,1.307.008,1.961a1.838,1.838,0,0,1-.9,1.636,5.2,5.2,0,0,0-.874.764.737.737,0,0,0-.154.475c.006.516.046,1.032.076,1.548s.066,1.061.1,1.589Zm-4.586,3.778c.024.368.046.708.067,1.048s.045.682.061,1.023c.025.5.083.568.576.665a1.644,1.644,0,0,0,.29.036c.77,0,1.541.01,2.312,0a2.735,2.735,0,0,0,.518-.08c.284-.056.45-.2.416-.523a2.989,2.989,0,0,1,.026-.467l.1-1.7Z" transform="translate(-2.261 -1.154)" fill="#3f8ece"/>
      <path id="Path_507" data-name="Path 507" d="M18.008,20.4c0,.293,0,.585,0,.878a.888.888,0,0,1-1.376.878c-.442-.2-.88-.417-1.309-.647a.382.382,0,0,0-.489.037,1.321,1.321,0,0,1-1.63-.009.362.362,0,0,0-.463-.034c-.414.217-.836.419-1.259.618a1.732,1.732,0,0,1-.441.147.8.8,0,0,1-.989-.771q-.04-1.1,0-2.195a.741.741,0,0,1,1.04-.717c.568.2,1.112.468,1.66.722a.377.377,0,0,0,.464-.035,1.325,1.325,0,0,1,1.631.007.353.353,0,0,0,.439.033c.421-.2.848-.393,1.274-.585a2.606,2.606,0,0,1,.353-.138.782.782,0,0,1,1.094.786c.01.341,0,.683,0,1.024Zm-7.024.926c.462-.228.883-.426,1.3-.639.148-.077.162-.482.015-.554-.424-.208-.858-.4-1.311-.6Zm6.072-1.789c-.446.2-.871.389-1.29.589a.4.4,0,0,0-.01.551c.419.218.847.42,1.3.643Z" transform="translate(-0.9 -1.661)" fill="#344a5d"/>
      <path id="Path_508" data-name="Path 508" d="M14.838,25.19a.466.466,0,1,1-.462-.471.471.471,0,0,1,.462.471" transform="translate(-1.247 -2.216)" fill="#344a5d"/>
      <path id="Path_509" data-name="Path 509" d="M14.838,28.281a.466.466,0,1,1-.46-.473.471.471,0,0,1,.46.473" transform="translate(-1.247 -2.493)" fill="#344a5d"/>
    </g>
  </g>
</svg>
