<svg xmlns="http://www.w3.org/2000/svg" width="34.525" height="30" viewBox="0 0 34.525 30">
  <g id="_6578925_cleaner_cleaning_housekeeping_vacuum_icon" data-name="6578925_cleaner_cleaning_housekeeping_vacuum_icon" transform="translate(0 -3.281)">
    <path id="Path_513" data-name="Path 513" d="M33.337,30.034H30.09V24.3A30.866,30.866,0,0,0,23.272,4.925,4.433,4.433,0,0,0,20.35,3.3a4.324,4.324,0,0,0-3.247.974,4.026,4.026,0,0,0-1.732,3.03,4.819,4.819,0,0,0,1.082,3.355l1.191,1.407a5.537,5.537,0,0,1,.216,6.927l-1.407-1.407a5.884,5.884,0,0,0-4.221-1.623H8.553A6.054,6.054,0,0,0,2.6,20.727a7.276,7.276,0,0,1,2.6-.433,7.529,7.529,0,0,1,7.576,7.576A7.391,7.391,0,0,1,11.367,32.2h4.654a6.227,6.227,0,0,0,5.953-4,5.877,5.877,0,0,0-1.515-6.6L19.267,20.51a7.553,7.553,0,0,0-.108-9.849L17.969,9.254a2,2,0,0,1-.541-1.732A2.423,2.423,0,0,1,18.293,5.9a2.384,2.384,0,0,1,1.732-.541,1.99,1.99,0,0,1,1.515.866A28.59,28.59,0,0,1,27.818,24.19v5.844H26.735a1.082,1.082,0,0,0,0,2.165h6.494a1.023,1.023,0,0,0,1.082-1.082C34.311,30.467,33.987,30.034,33.337,30.034Z" transform="translate(0.214)" fill="#3f8ece"/>
    <circle id="Ellipse_17" data-name="Ellipse 17" cx="5.411" cy="5.411" r="5.411" transform="translate(0 22.458)" fill="#344a5d"/>
  </g>
</svg>
