<svg xmlns="http://www.w3.org/2000/svg" xmlns:xlink="http://www.w3.org/1999/xlink" width="34.005" height="22.164" viewBox="0 0 34.005 22.164">
  <defs>
    <clipPath id="clip-path">
      <rect id="Rectangle_147" data-name="Rectangle 147" width="34.005" height="22.164" fill="#344a5d"/>
    </clipPath>
  </defs>
  <g id="Group_341" data-name="Group 341" transform="translate(0 0)">
    <g id="Group_207" data-name="Group 207" transform="translate(0 0)" clip-path="url(#clip-path)">
      <path id="Path_514" data-name="Path 514" d="M5.333,16.765A14.842,14.842,0,0,1,17.588,3.691,2.673,2.673,0,0,1,18.783.344a2.612,2.612,0,0,1,2.9.213,2.737,2.737,0,0,1,.854,3.135,14.89,14.89,0,0,1,10.41,7.274,13.656,13.656,0,0,1,1.849,5.8ZM22.1,6.706c-.323-.011-.532.1-.593.4a.491.491,0,0,0,.361.621c.323.1.661.147.985.24a8.07,8.07,0,0,1,4.587,2.919,10.57,10.57,0,0,1,.893,1.805c.132.292.315.459.639.4a.522.522,0,0,0,.39-.67,2.679,2.679,0,0,0-.11-.382A7.461,7.461,0,0,0,25.58,7.924,11.633,11.633,0,0,0,22.1,6.706" transform="translate(-3.063 0)" fill="#3f8ece"/>
      <path id="Path_515" data-name="Path 515" d="M17.007,41.914H33.164c.711,0,.84.13.84.847q0,1.38,0,2.759c0,.538-.172.711-.722.713q-2.487.005-4.974,0H.931A3.7,3.7,0,0,1,.5,46.222a.5.5,0,0,1-.491-.528q-.011-1.615,0-3.231a.518.518,0,0,1,.518-.545,2.444,2.444,0,0,1,.29,0H17.007" transform="translate(0 -24.071)" fill="#344a5d"/>
    </g>
  </g>
</svg>
