<svg xmlns="http://www.w3.org/2000/svg" width="21.933" height="30" viewBox="0 0 21.933 30">
  <g id="Group_340" data-name="Group 340" transform="translate(-144.275 -3464.036)">
    <rect id="Rectangle_148" data-name="Rectangle 148" width="2" height="6" transform="translate(152 3475)" fill="#344a5d"/>
    <rect id="Rectangle_149" data-name="Rectangle 149" width="3" height="6" transform="translate(156 3475)" fill="#344a5d"/>
    <path id="Path_516" data-name="Path 516" d="M10.422.038V28.15c-.143.009-.274.026-.4.026H.809c-.623,0-.8-.179-.8-.8Q.006,13.915,0,.454C0,.128.075,0,.427,0c3.2.012,6.411.007,9.617.008.119,0,.237.016.377.027M8.167,15.879h.98V11.99h-.98Z" transform="translate(144.275 3464.035)" fill="#3f8ece"/>
    <path id="Path_517" data-name="Path 517" d="M13.575,28.177V.038c.148-.01.291-.028.434-.028,3.164,0,6.329.006,9.494-.01.407,0,.493.132.492.513q-.014,13.42-.007,26.84c0,.648-.175.824-.822.824H13.575m1.1-16.145v3.85H15.7c0-1.047,0-2.064,0-3.082,0-.923-.053-.964-1.025-.768" transform="translate(142.213 3464.036)" fill="#3f8ece"/>
    <path id="Path_518" data-name="Path 518" d="M2.831,34.5H3.6a2.618,2.618,0,0,1-.117.679.513.513,0,0,1-.439.018,2.7,2.7,0,0,1-.209-.7" transform="translate(143.845 3458.795)" fill="#344a5d"/>
    <path id="Path_519" data-name="Path 519" d="M22.525,34.5h.709a2.431,2.431,0,0,1-.109.684c-.029.064-.433.07-.473,0a2.166,2.166,0,0,1-.127-.682" transform="translate(140.854 3458.796)" fill="#344a5d"/>
  </g>
</svg>
