<svg xmlns="http://www.w3.org/2000/svg" width="28.983" height="23.024" viewBox="0 0 28.983 23.024">
  <g id="Group_283" data-name="Group 283" transform="translate(-695.754 -241.02)">
    <path id="Path_648" data-name="Path 648" d="M77.286,41.069a.378.378,0,0,1,.147.3c.01.977.008,1.955.006,2.932H78.3V41.108a2.36,2.36,0,0,0,1.125-.8,4.762,4.762,0,0,0,.024-5.467,1.97,1.97,0,0,0-1.556-.872,2.021,2.021,0,0,0-1.8,1.133,4.761,4.761,0,0,0-.194,4.6,2.562,2.562,0,0,0,1.386,1.373" transform="translate(643.479 217.471)" fill="#3f8ece"/>
    <path id="Path_649" data-name="Path 649" d="M5.174,41.08a.239.239,0,0,1,.1.184c0,1,0,2,0,3.032h.874V41.1a2.36,2.36,0,0,0,1.113-.785A4.767,4.767,0,0,0,7.273,34.8,1.946,1.946,0,0,0,5.7,33.967a2.071,2.071,0,0,0-1.755,1.118,4.647,4.647,0,0,0-.567,3.529A3.065,3.065,0,0,0,5.174,41.08" transform="translate(693.494 217.472)" fill="#3f8ece"/>
    <path id="Path_650" data-name="Path 650" d="M28.936,21.909a.8.8,0,0,0-.841-.535c-.4,0-.806,0-1.212,0v.016H24.323v-.036H21.348V4.16c0-.692-.2-.955-.857-1.125q-1.8-.466-3.6-.928Q12.851,1.073,8.814.04A.918.918,0,0,0,7.9.248a1.045,1.045,0,0,0-.268.85q0,9.945,0,19.891v.4H2.319v-.017c-.484,0-.969-.006-1.452.006a.823.823,0,0,0-.852.978c.076.43.426.669.984.669H23.837c1.421,0,2.842,0,4.264,0a.835.835,0,0,0,.835-1.112M13.78,5.281h1.427a.238.238,0,0,1,.268.276c0,.456,0,.912,0,1.367,0,.2-.107.283-.3.281-.238,0-.475,0-.713,0-.218,0-.436,0-.654,0s-.318-.079-.317-.3c0-.446,0-.892,0-1.338a.253.253,0,0,1,.288-.292m-.287,4.254a.255.255,0,0,1,.294-.288c.466,0,.931,0,1.4,0,.2,0,.293.087.292.286q0,.684,0,1.367a.238.238,0,0,1-.275.27c-.247,0-.5,0-.743,0h0c-.218,0-.436,0-.654,0s-.314-.082-.312-.3c0-.446,0-.892,0-1.338M9.928,5.285c.495-.006.991-.013,1.485.008a.337.337,0,0,1,.232.23c.023.475.024.951,0,1.425a.361.361,0,0,1-.249.246,13.537,13.537,0,0,1-1.424,0,.367.367,0,0,1-.244-.252A5.141,5.141,0,0,1,9.715,6.2H9.708A6.091,6.091,0,0,0,9.7,5.549c-.021-.191.063-.262.225-.264M9.7,9.512c-.019-.192.069-.259.231-.261.485-.005.97,0,1.455,0,.186,0,.268.1.268.278,0,.456,0,.911,0,1.367,0,.183-.081.277-.267.276-.466,0-.931,0-1.4,0-.2,0-.285-.1-.281-.293,0-.238,0-.475,0-.713H9.708A6.527,6.527,0,0,0,9.7,9.512M11.7,14.82a.25.25,0,0,1-.29.288c-.238,0-.475,0-.713,0s-.456,0-.684,0c-.192,0-.3-.071-.3-.277,0-.455,0-.911,0-1.367a.243.243,0,0,1,.27-.279q.713,0,1.427,0c.2,0,.287.1.286.3q0,.669,0,1.338m2.527,4.264c0,.527-.006,1.054,0,1.58,0,.234-.073.346-.326.341q-.923-.017-1.848,0c-.252,0-.332-.108-.332-.34q.006-1.58,0-3.16c0-.233.081-.346.332-.342q.924.015,1.848,0c.251,0,.331.1.328.34-.009.527,0,1.054,0,1.58m-.458-3.977a.24.24,0,0,1-.272-.274q0-.684,0-1.368a.246.246,0,0,1,.272-.279c.475,0,.951,0,1.427,0,.2,0,.285.1.283.3,0,.446,0,.892,0,1.338,0,.2-.082.294-.284.29-.238,0-.475,0-.713,0h0c-.238,0-.475,0-.713,0m3.544,3.973c0,.536,0,1.071,0,1.607,0,.229-.089.32-.318.317q-.938-.012-1.874,0c-.233,0-.317-.1-.316-.324q.006-1.592,0-3.184c0-.242.1-.336.338-.333q.922.014,1.844,0c.249,0,.332.1.327.34-.01.525,0,1.051,0,1.577m1.982-4.223c0,.173-.093.251-.26.25h-.713c-.238,0-.475,0-.713,0-.194,0-.3-.083-.294-.284q0-.669,0-1.338c0-.193.083-.3.281-.3h1.427a.243.243,0,0,1,.275.274q0,.7,0,1.4m0-3.973c0,.2-.09.29-.288.287-.238,0-.475,0-.713,0s-.456,0-.684,0c-.192,0-.3-.079-.3-.281,0-.456,0-.912,0-1.368a.243.243,0,0,1,.275-.274c.476,0,.951,0,1.427,0,.2,0,.281.106.279.3,0,.446,0,.892,0,1.338m-.316-3.675c-.228-.006-.456,0-.684,0s-.436,0-.654,0-.334-.082-.33-.314q.008-.654,0-1.308c0-.215.1-.306.306-.305q.7,0,1.4,0c.2,0,.283.1.281.3,0,.436-.006.872,0,1.308,0,.225-.091.33-.318.324" transform="translate(695.754 241.02)"/>
  </g>
</svg>
