<svg id="Group_339" data-name="Group 339" xmlns="http://www.w3.org/2000/svg" width="28.299" height="30" viewBox="0 0 28.299 30">
  <path id="Path_495" data-name="Path 495" d="M22.866,14.388l.344,5.926a25.109,25.109,0,0,0-18.4-.022c.114-1.962.228-3.911.343-5.89A5.031,5.031,0,0,1,.6,11.7,4.873,4.873,0,0,1,.27,7.745,5.085,5.085,0,0,1,7.913,5.182,6.025,6.025,0,0,1,10.67.937,5.825,5.825,0,0,1,14.336.018a5.877,5.877,0,0,1,3.819,1.75,5.991,5.991,0,0,1,1.753,3.8c2.195-1.59,4.4-1.76,6.559-.07a4.916,4.916,0,0,1,1.564,5.46c-.718,2.135-2.431,3.283-5.165,3.434" transform="translate(0 0)" fill="#3f8ece"/>
  <path id="Path_496" data-name="Path 496" d="M17.184,44.14A23.389,23.389,0,0,1,10.55,43.3a7.45,7.45,0,0,1-2.3-1.05,1.775,1.775,0,0,1-.807-1.766c.13-1.183.191-2.373.253-3.562a.61.61,0,0,1,.346-.562A12.168,12.168,0,0,1,11.876,35a26.2,26.2,0,0,1,10.843.122,10.526,10.526,0,0,1,3.4,1.324.638.638,0,0,1,.266.423c.092,1.268.145,2.538.235,3.806a1.458,1.458,0,0,1-.636,1.4,9.23,9.23,0,0,1-1.86,1,20.569,20.569,0,0,1-6.944,1.057M9.562,40.869c.009.048.018.1.028.144A18.328,18.328,0,0,0,17.043,42.4a18.2,18.2,0,0,0,7.523-1.433,16.067,16.067,0,0,0-3.75-1.165,22.975,22.975,0,0,0-3.863-.256,17.544,17.544,0,0,0-4.663.469c-.921.241-1.819.568-2.727.856" transform="translate(-3.046 -14.14)" fill="#344a5d"/>
</svg>
