<svg xmlns="http://www.w3.org/2000/svg" width="15.572" height="20.489" viewBox="0 0 15.572 20.489">
  <g id="Icon_ionic-ios-document" data-name="Icon ionic-ios-document" transform="translate(-7.313 -3.938)">
    <path id="Path_773" data-name="Path 773" d="M21.575,9.011h4.661a.254.254,0,0,0,.256-.256h0a1.516,1.516,0,0,0-.548-1.173L22.036,4.324a1.645,1.645,0,0,0-1.055-.379h0a.378.378,0,0,0-.379.379V8.037A.973.973,0,0,0,21.575,9.011Z" transform="translate(-3.608 -0.002)" fill="#344a5d"/>
    <path id="Path_774" data-name="Path 774" d="M15.662,8.035v-4.1H8.952A1.644,1.644,0,0,0,7.313,5.577V22.788a1.644,1.644,0,0,0,1.639,1.639H21.245a1.644,1.644,0,0,0,1.639-1.639V10.34H17.967A2.309,2.309,0,0,1,15.662,8.035Z" fill="#3f8ece"/>
  </g>
</svg>
