<svg xmlns="http://www.w3.org/2000/svg" width="19.796" height="15.572" viewBox="0 0 19.796 15.572">
  <g id="Group_482" data-name="Group 482" transform="translate(-959 -458.111)">
    <path id="Path_788" data-name="Path 788" d="M0,0C1.767,1.494,3.738,2.63,5.561,3.972,6.2,4.441,6.845,4.9,7.5,5.342a5.274,5.274,0,0,0,1.891.844,3.321,3.321,0,0,0,2.421-.556c.679-.4,1.313-.878,1.963-1.328Q16.32,2.539,18.863.765c.317-.222.6-.5.914-.765.006.089.017.169.017.248q0,4.16,0,8.32a1.777,1.777,0,0,1-1.906,1.914q-7.991,0-15.983,0A1.774,1.774,0,0,1,0,8.594Q0,4.42,0,.246V0" transform="translate(959 463.2)" fill="#3f8ece"/>
    <path id="Path_789" data-name="Path 789" d="M9.88.016c2.631,0,5.263.037,7.893-.016a1.889,1.889,0,0,1,1.852,2.716A4.019,4.019,0,0,1,18.156,4.61c-1.743,1.247-3.51,2.462-5.269,3.687-.555.387-1.116.764-1.673,1.148a2.137,2.137,0,0,1-2.633,0Q6.1,7.729,3.623,6.01,2.8,5.44,1.98,4.869A5.219,5.219,0,0,1,.2,2.854,2.029,2.029,0,0,1,.912.241,2.36,2.36,0,0,1,1.929.026C4.579.009,7.23.016,9.88.016" transform="translate(959.001 458.111)" fill="#344a5d"/>
  </g>
</svg>
