<svg xmlns="http://www.w3.org/2000/svg" width="19.838" height="20.489" viewBox="0 0 19.838 20.489">
  <g id="Group_483" data-name="Group 483" transform="translate(-304.867 -526)">
    <path id="Path_790" data-name="Path 790" d="M21.683,2.338v5.6c0,1.752,0,3.5,0,5.256a.461.461,0,0,1-.2.407,13.284,13.284,0,0,1-2.474,1.6,4.927,4.927,0,0,1-4.822-.194c-.684-.389-1.365-.784-2.06-1.151a5.393,5.393,0,0,0-5.089-.025c-.517.246-1.006.55-1.508.827-.061.033-.119.07-.2.121-.007-.083-.015-.142-.015-.2q0-5.343,0-10.686a.342.342,0,0,1,.1-.252A9.237,9.237,0,0,1,8.553,2.227a5.339,5.339,0,0,1,3.736.615c.767.414,1.517.859,2.289,1.262a4.769,4.769,0,0,0,4.553-.056,13.547,13.547,0,0,0,2.39-1.582l.162-.128" transform="translate(303.017 525.263)" fill="#3f8ece"/>
    <path id="Path_791" data-name="Path 791" d="M1.515,0A1.476,1.476,0,0,1,2.88.915a1.445,1.445,0,0,1-.316,1.609.667.667,0,0,0-.219.551q.008,7.214,0,14.429a.489.489,0,0,0,.171.4,1.481,1.481,0,0,1,.334,1.734,1.51,1.51,0,0,1-1.562.837,1.506,1.506,0,0,1-.76-2.632A.379.379,0,0,0,.641,17.6q.008-7.353,0-14.705A.444.444,0,0,0,.5,2.613,1.514,1.514,0,0,1,.112.921,1.481,1.481,0,0,1,1.515,0" transform="translate(304.867 526)" fill="#344a5d"/>
  </g>
</svg>
