<svg id="Group_343" data-name="Group 343" xmlns="http://www.w3.org/2000/svg" xmlns:xlink="http://www.w3.org/1999/xlink" width="22.874" height="30" viewBox="0 0 22.874 30">
  <defs>
    <clipPath id="clip-path">
      <rect id="Rectangle_144" data-name="Rectangle 144" width="22.874" height="30" fill="#344a5d"/>
    </clipPath>
  </defs>
  <g id="Group_201" data-name="Group 201" transform="translate(0 0)" clip-path="url(#clip-path)">
    <path id="Path_503" data-name="Path 503" d="M12.348,20.017c-1.882,0-3.765-.044-5.645.011a2.837,2.837,0,0,1-2.877-3.421c.569-3.27,1.094-6.547,1.625-9.822a3.121,3.121,0,0,1,1-1.9.668.668,0,0,0,.179-.441c.019-.694,0-1.387.016-2.081a.573.573,0,0,1,.176-.4A8.982,8.982,0,0,1,13.058.027a9.3,9.3,0,0,1,4.865,1.957.533.533,0,0,1,.138.38c.014.694,0,1.387.013,2.081a.557.557,0,0,0,.131.385,3.3,3.3,0,0,1,1.1,2.157c.524,3.236,1.065,6.47,1.59,9.706a2.838,2.838,0,0,1-1.947,3.225,3.864,3.864,0,0,1-.951.095c-1.881.008-3.763,0-5.645,0m5.8-7.649-.082-.011c0-.4-.011-.8,0-1.2a.392.392,0,0,0-.292-.444c-1.729-.663-3.452-1.34-5.18-2a.631.631,0,0,0-.413-.022Q9.519,9.706,6.863,10.759a.385.385,0,0,0-.211.275,21.194,21.194,0,0,0,.052,2.8A5.614,5.614,0,0,0,11.874,18.6a5.672,5.672,0,0,0,5.955-3.991,16.09,16.09,0,0,0,.321-2.243M8.056,7.1a7.324,7.324,0,0,1,8.54-.04c.026-.049.048-.072.048-.094,0-1.308.011-2.615,0-3.922a.493.493,0,0,0-.209-.34,7.145,7.145,0,0,0-7.582-.372c-.6.306-.942.682-.8,1.388a2.921,2.921,0,0,1,.005.559V7.1" transform="translate(-0.909 0)" fill="#344a5d"/>
    <path id="Path_504" data-name="Path 504" d="M22.86,37.222H0A6.992,6.992,0,0,1,1.533,32.83a7.241,7.241,0,0,1,5.746-2.761,1.549,1.549,0,0,1,1.5.748c.754,1.1,1.591,2.139,2.394,3.2.079.1.163.2.267.334.092-.108.17-.192.239-.283.941-1.245,1.876-2.493,2.824-3.732a.6.6,0,0,1,.365-.243,7.4,7.4,0,0,1,5.566,1.761,7.071,7.071,0,0,1,2.437,5.126,2.2,2.2,0,0,1-.012.239" transform="translate(0 -7.222)" fill="#3f8ece"/>
  </g>
</svg>
