<svg xmlns="http://www.w3.org/2000/svg" width="73.674" height="58.939" viewBox="0 0 73.674 58.939">
  <g id="Group_298" data-name="Group 298" transform="translate(-695 -1581)">
    <path id="Icon_awesome-money-bill" data-name="Icon awesome-money-bill" d="M69.99,2H3.684A3.684,3.684,0,0,0,0,5.684V42.521A3.684,3.684,0,0,0,3.684,46.2H69.99a3.684,3.684,0,0,0,3.684-3.684V5.684A3.684,3.684,0,0,0,69.99,2ZM5.526,40.679V33.311a7.367,7.367,0,0,1,7.367,7.367Zm0-25.786V7.526h7.367A7.367,7.367,0,0,1,5.526,14.893Zm31.311,20.26c-5.087,0-9.209-4.949-9.209-11.051s4.123-11.051,9.209-11.051S46.046,18,46.046,24.1,41.922,35.153,36.837,35.153Zm31.311,5.526H60.781a7.367,7.367,0,0,1,7.367-7.367Zm0-25.786a7.367,7.367,0,0,1-7.367-7.367h7.367Z" transform="translate(695 1593.735)" fill="#3f8ece"/>
    <path id="Path_659" data-name="Path 659" d="M4.093,0H69.581a3.9,3.9,0,0,1,4.093,3.684H0A3.9,3.9,0,0,1,4.093,0Z" transform="translate(695 1588.367)"/>
    <path id="Path_660" data-name="Path 660" d="M4.093,0H69.581a3.9,3.9,0,0,1,4.093,3.684H0A3.9,3.9,0,0,1,4.093,0Z" transform="translate(695 1581)"/>
  </g>
</svg>
