<svg xmlns="http://www.w3.org/2000/svg" xmlns:xlink="http://www.w3.org/1999/xlink" width="22.594" height="34" viewBox="0 0 22.594 34">
  <defs>
    <clipPath id="clip-path">
      <rect id="Rectangle_249" data-name="Rectangle 249" width="22.594" height="34"/>
    </clipPath>
  </defs>
  <g id="Group_451" data-name="Group 451" transform="translate(0 0)">
    <g id="Group_450" data-name="Group 450" transform="translate(0 0)" clip-path="url(#clip-path)">
      <path id="Path_742" data-name="Path 742" d="M12.154,0h.93a3.818,3.818,0,0,1,1.859.954A3.867,3.867,0,0,1,16.8,0h.93a.286.286,0,0,0,.082.052,3.308,3.308,0,0,1,2.774,3.482q0,2.805,0,5.611a.394.394,0,0,0,.2.406,3.571,3.571,0,0,1,1.8,3.2c.008,1.107.029,2.214,0,3.32a8.71,8.71,0,0,1-4.449,7.667,1.452,1.452,0,0,0-.875,1.577c.074.866.017,1.742.017,2.632.093.005.157.011.22.012a1.666,1.666,0,0,1,1.773,1.795q0,.963,0,1.925a6.624,6.624,0,0,1-.021.894A1.741,1.741,0,0,1,17.933,34H2.657c-.1-.042-.2-.084-.3-.128a1.578,1.578,0,0,1-1.022-1.465c-.027-.951-.018-1.9,0-2.855a1.605,1.605,0,0,1,1.243-1.534,6.523,6.523,0,0,1,.743-.093V27.6c0-1.129.008-2.258-.008-3.386a1.192,1.192,0,0,0-.164-.583c-.832-1.357-1.678-2.706-2.526-4.054a3.607,3.607,0,0,1-.617-1.933Q0,10.44.007,3.236A3.282,3.282,0,0,1,2.421.13C2.566.09,2.712.044,2.857,0h.93A3.846,3.846,0,0,1,5.615.921,8.928,8.928,0,0,1,6.522.346,8.532,8.532,0,0,1,7.506,0h.93A3.791,3.791,0,0,1,10.3.954,3.808,3.808,0,0,1,12.154,0m3.122,27.942c0-1.433.005-2.827,0-4.221a1.072,1.072,0,0,1,.653-1.057c.358-.174.719-.344,1.062-.544a6.832,6.832,0,0,0,3.588-5.9c.052-1.127.014-2.257.013-3.386a1.669,1.669,0,0,0-1.822-1.811q-3.769,0-7.535,0H9.7a.351.351,0,0,0-.4.409,3.012,3.012,0,0,0,.02.331,3.655,3.655,0,0,0,3.712,3.243c1.206.005,2.412,0,3.619,0,.714,0,1.157.379,1.16.989s-.441,1-1.146,1q-1.742,0-3.485,0a5.636,5.636,0,0,1-5.15-2.882.345.345,0,0,0-.209-.169A3.469,3.469,0,0,1,5.65,13a3.389,3.389,0,0,1-3.657.677V14c0,1.118.008,2.236,0,3.353a2.168,2.168,0,0,0,.353,1.221c.9,1.43,1.792,2.869,2.7,4.3a1.7,1.7,0,0,1,.28.966c-.012,1.25,0,2.5,0,3.751v.351Zm1.978,2.031H3.337V31.99H17.253ZM4.65,7c0-1.205,0-2.41,0-3.616a1.329,1.329,0,1,0-2.654.008q0,3.565,0,7.13a1.331,1.331,0,1,0,2.654-.008c0-1.172,0-2.344,0-3.515M7.283,11.75a.887.887,0,0,0,.027-.105A2.33,2.33,0,0,1,9.145,9.079a.306.306,0,0,0,.146-.237c.008-1.859.016-3.718,0-5.577a1.323,1.323,0,0,0-2.645.024q-.014,3.686,0,7.37a1.252,1.252,0,0,0,.636,1.092m6.659-2.733c0-1.954,0-3.878-.007-5.8a1.216,1.216,0,0,0-.161-.533,1.322,1.322,0,0,0-2.481.655c-.005,1.826,0,3.651,0,5.477,0,.063.008.127.014.2Zm4.654.006V8.7q0-2.639,0-5.278a1.331,1.331,0,1,0-2.654.008q0,2.639,0,5.278v.316Z" transform="translate(0 0)"/>
    </g>
  </g>
</svg>
