<svg xmlns="http://www.w3.org/2000/svg" width="24.698" height="24" viewBox="0 0 24.698 24">
  <g id="Group_282" data-name="Group 282" transform="translate(-313.608 -236.5)">
    <path id="Path_643" data-name="Path 643" d="M12.275,14.573a1.482,1.482,0,0,0-.449-1.41,5.985,5.985,0,0,1-1.351-3.221c-.017-.134-.039-.213-.2-.239A.871.871,0,0,1,9.527,9a.954.954,0,0,1,.331-1.054.305.305,0,0,0,.123-.393A6.049,6.049,0,0,1,12.533.788a5.386,5.386,0,0,1,7.561,2.1,6.115,6.115,0,0,1,.554,4.643.327.327,0,0,0,.122.42A.95.95,0,0,1,21.1,9.01a.928.928,0,0,1-.75.708.3.3,0,0,0-.185.2,6.572,6.572,0,0,1-1.774,3.743.494.494,0,0,0-.1.3,7.535,7.535,0,0,0,0,.949,1.672,1.672,0,0,1-.292,1.076,6.139,6.139,0,0,1-1.5,1.751,1.831,1.831,0,0,1-2.391-.009,5.741,5.741,0,0,1-1.739-2.184,2.955,2.955,0,0,1-.094-.977" transform="translate(310.645 236.5)"/>
    <path id="Path_644" data-name="Path 644" d="M21.344,31.558,22.8,28.907c.326-.595.66-1.186.973-1.789a.5.5,0,0,0,.012-.376c-.318-.723-.655-1.438-.985-2.156-.039-.083-.072-.168-.124-.293a2.187,2.187,0,0,1,.4.022,17.945,17.945,0,0,1,8,4.41.809.809,0,0,1,.29.658c-.017.539,0,1.08-.006,1.62,0,.379-.184.58-.558.58q-4.65.005-9.3,0a1.149,1.149,0,0,1-.153-.026" transform="translate(306.942 228.914)"/>
    <path id="Path_645" data-name="Path 645" d="M8.716,24.266c-.325.708-.582,1.38-.935,2a1.251,1.251,0,0,0,.052,1.42c.7,1.185,1.331,2.408,1.989,3.617.04.073.075.148.133.263-.114.006-.2.013-.287.013H.7c-.541,0-.693-.155-.694-.7,0-.521-.02-1.043.01-1.563a.87.87,0,0,1,.225-.533A17.481,17.481,0,0,1,8.294,24.32c.115-.028.236-.031.422-.054" transform="translate(313.607 228.923)"/>
    <path id="Path_646" data-name="Path 646" d="M17.28,32.726c-.243,0-.485,0-.727,0a.268.268,0,0,1-.3-.256c-.137-.777-.28-1.554-.413-2.332a.72.72,0,0,1,.02-.3c.151-.545.316-1.087.466-1.633.054-.2.146-.25.359-.234a8.828,8.828,0,0,0,1.221,0c.2-.012.291.023.342.218.146.557.335,1.1.447,1.667a2.33,2.33,0,0,1-.076.792c-.1.6-.224,1.206-.321,1.811a.271.271,0,0,1-.318.265c-.232,0-.466,0-.7,0" transform="translate(308.664 227.766)" fill="#3f8ece"/>
  </g>
</svg>
