<svg xmlns="http://www.w3.org/2000/svg" xmlns:xlink="http://www.w3.org/1999/xlink" width="40" height="26.685" viewBox="0 0 40 26.685">
  <defs>
    <clipPath id="clip-path">
      <rect id="Rectangle_146" data-name="Rectangle 146" width="40" height="26.685" fill="#344a5d"/>
    </clipPath>
  </defs>
  <g id="Group_344" data-name="Group 344" transform="translate(0 0)">
    <g id="Group_205" data-name="Group 205" transform="translate(0 0)" clip-path="url(#clip-path)">
      <path id="Path_510" data-name="Path 510" d="M20.048,17.55c.471,0,.942,0,1.412,0a4.339,4.339,0,0,1,3.234,1.39c1.293,1.31,2.59,2.621,3.972,3.835a24.646,24.646,0,0,0,7.156,4.057c.832.34,1.651.717,2.453,1.123a3.077,3.077,0,0,1,1.62,1.963,1.619,1.619,0,0,1-.359,1.754,1.593,1.593,0,0,1-1.841.271c-1.036-.446-2.059-.924-3.072-1.419a83.455,83.455,0,0,1-12.714-7.609,2.883,2.883,0,0,0-3.851.028A83.781,83.781,0,0,1,2.56,31.83a2.7,2.7,0,0,1-1.279.221A1.455,1.455,0,0,1,.03,30.266,2.987,2.987,0,0,1,1.6,28.039a29.182,29.182,0,0,1,2.962-1.36A26.324,26.324,0,0,0,15.074,19.21a4.506,4.506,0,0,1,3.763-1.662c.4.017.807,0,1.211,0" transform="translate(0 -5.432)" fill="#3f8ece"/>
      <path id="Path_511" data-name="Path 511" d="M36.45,37.265H9.233c.589-.307,1.1-.57,1.612-.842.925-.493,1.844-1,2.775-1.481a1.473,1.473,0,0,1,.643-.173q8.616-.012,17.232,0a1.023,1.023,0,0,1,.465.09c1.484.786,2.962,1.584,4.491,2.406" transform="translate(-2.859 -10.764)" fill="#344a5d"/>
      <path id="Path_512" data-name="Path 512" d="M25.534,8.817a11.627,11.627,0,0,1,.013-1.567,1.423,1.423,0,0,1,1.5-1.33,1.5,1.5,0,0,0,.34-2.938,1.487,1.487,0,0,0-1.9,1.423,1.506,1.506,0,0,1-1.066,1.417,1.479,1.479,0,0,1-1.609-.567,1.885,1.885,0,0,1-.213-1.478,4.418,4.418,0,0,1,8.786.494,4.3,4.3,0,0,1-2.568,4.165.509.509,0,0,0-.351.549c.025.375,0,.753.008,1.129.006.238-.085.339-.331.336q-1.169-.011-2.339,0c-.255,0-.327-.113-.322-.344.009-.429,0-.86,0-1.29Z" transform="translate(-6.983 0)" fill="#344a5d"/>
    </g>
  </g>
</svg>
