<svg xmlns="http://www.w3.org/2000/svg" width="31.378" height="30" viewBox="0 0 31.378 30">
  <g id="D_-_12_x2C__waiter_x2C__resturant_x2C__serve_x2C__lunch_x2C__dinner" transform="translate(-60.166 -68.768)">
    <g id="Group_196" data-name="Group 196" transform="translate(60.166 68.768)">
      <path id="Path_497" data-name="Path 497" d="M64.128,295.613c-.52-.5-.745-.62-.887-.62a.341.341,0,0,0-.157.047,12.243,12.243,0,0,0-2.871,2.1v0c-.1.2-.034.38.116.764a5.74,5.74,0,0,1,.242.724,15.438,15.438,0,0,1,.193,4.244,11.769,11.769,0,0,0,.222,3.918c.015.043.029.051.052.06a1.425,1.425,0,0,0,.935-.263c.4-.234,1.163-.6,2.052-1.026,1.39-.665,3.977-1.9,4.214-2.323a1.856,1.856,0,0,0-.221-1.343A31.725,31.725,0,0,0,64.128,295.613Zm.4,7.479a.762.762,0,1,1,.676-.847A.759.759,0,0,1,64.531,303.092Z" transform="translate(-60.166 -276.869)" fill="#344a5d"/>
      <path id="Path_498" data-name="Path 498" d="M225.819,70.144l-4.129-1.376-4.129,1.376V74h8.258Z" transform="translate(-204.951 -68.768)" fill="#3f8ece"/>
      <path id="Path_499" data-name="Path 499" d="M146.929,175.349l1.877-3.754H126.747l1.877,3.754Z" transform="translate(-121.413 -163.357)" fill="#3f8ece"/>
      <path id="Path_500" data-name="Path 500" d="M146.427,266.75a3.318,3.318,0,0,0-2.245-.5,16.355,16.355,0,0,0-6.5,3.142,1.477,1.477,0,0,1-.327.424,3.255,3.255,0,0,1-2.171.593,20.386,20.386,0,0,1-4.838-.834l-.266-.071a.375.375,0,1,1,.188-.727l.272.072a26.44,26.44,0,0,0,3.326.714c1.908.251,2.677-.028,2.987-.306a.71.71,0,0,0,.185-.255l0,0c.007-.016.013-.032.019-.049s.007-.021.01-.032l0-.007a1.241,1.241,0,0,0,.014-.53,1.888,1.888,0,0,0-.9-1.181c-2.464-1.719-8.5-2.126-10.295-1.765h0a20.977,20.977,0,0,0-5.345,2.52l-.3.176.1.126,0,0a23.24,23.24,0,0,1,1.451,2.109l0,0,.124.2.006.01q.122.2.243.4l.01.017.115.192.014.024.114.193,0,.007.108.184.017.029.1.179.022.038.1.177.015.027.089.158.021.037.092.165.025.046.089.16.021.038.074.136.021.04.081.15.024.046.078.146.018.035.065.125.017.034.07.136.02.039.065.13.015.031.056.114.011.022.058.12.008.017a10.653,10.653,0,0,1,3.7-.753,10.387,10.387,0,0,1,3.37.668,10.341,10.341,0,0,0,4.338.664c1.263-.094,4.166-1.354,6.9-3,3.275-1.967,4.719-3.518,4.675-4.126A.936.936,0,0,0,146.427,266.75Z" transform="translate(-115.432 -249.569)" fill="#344a5d"/>
      <rect id="Rectangle_138" data-name="Rectangle 138" width="1.502" height="1.502" transform="translate(7.73 1.856)" fill="#3f8ece"/>
      <rect id="Rectangle_139" data-name="Rectangle 139" width="1.502" height="1.502" transform="translate(5.478 1.856)" fill="#3f8ece"/>
      <rect id="Rectangle_140" data-name="Rectangle 140" width="1.502" height="1.502" transform="translate(3.225 1.856)" fill="#3f8ece"/>
      <rect id="Rectangle_141" data-name="Rectangle 141" width="1.501" height="1.502" transform="translate(28.751 1.856)" fill="#3f8ece"/>
      <rect id="Rectangle_142" data-name="Rectangle 142" width="1.502" height="1.502" transform="translate(26.499 1.856)" fill="#3f8ece"/>
      <rect id="Rectangle_143" data-name="Rectangle 143" width="1.502" height="1.502" transform="translate(24.246 1.856)" fill="#3f8ece"/>
    </g>
  </g>
</svg>
