<svg xmlns="http://www.w3.org/2000/svg" width="25.388" height="17.96" viewBox="0 0 25.388 17.96">
  <path id="Subtraction_1" data-name="Subtraction 1" d="M2.744,16.96c-.411,0-.771,0-1.1,0A1.59,1.59,0,0,1,0,15.328c0-4.1,0-8.574,0-13.693A1.6,1.6,0,0,1,1.674,0H22.568A1.626,1.626,0,0,1,24.39,1.815q0,6.7,0,13.4a1.611,1.611,0,0,1-1.76,1.746H21.489l-1.712,0c-.469,0-.64-.157-.674-.62a1.6,1.6,0,0,0-3.2,0c-.034.461-.206.617-.679.617H8.888c-.592,0-.709-.1-.782-.692a1.614,1.614,0,0,0-1.576-1.436,1.573,1.573,0,0,0-.539.1,1.592,1.592,0,0,0-1.083,1.418c-.057.487-.2.613-.677.614h-.4Zm3.87-7.716a.748.748,0,0,0-.195.028c-.216.058-.438.11-.652.16-.367.085-.746.173-1.107.3a1.33,1.33,0,0,0-.67.53,3.163,3.163,0,0,0-.314,1.768.478.478,0,0,0,.509.468h.024a.511.511,0,0,0,.483-.507c.006-.078.011-.157.016-.236.008-.139.017-.283.035-.424.068-.523.1-.536.488-.685l.18-.071A1.823,1.823,0,0,1,6.1,10.42a1.445,1.445,0,0,1,1.149.665c.2.258.377.379.545.379s.335-.115.533-.363a1.556,1.556,0,0,1,1.216-.7,1.753,1.753,0,0,1,.748.187.068.068,0,0,0,.023.005h.01a.3.3,0,0,1,.3.325c.005.166.016.335.027.5.009.14.019.285.024.427.015.363.217.6.514.6H11.2a.534.534,0,0,0,.508-.581,8.872,8.872,0,0,0-.059-1.091,1.147,1.147,0,0,0-1.056-1.167l-.414-.1c-.3-.071-.6-.144-.9-.226a.867.867,0,0,0-.227-.033.669.669,0,0,0-.493.227c-.168.172-.34.332-.539.518l-.254.237-.269-.3c-.153-.169-.295-.326-.441-.483A.575.575,0,0,0,6.614,9.244ZM17.2,11.651h2.814c.4,0,.643-.19.655-.5a.47.47,0,0,0-.128-.353.71.71,0,0,0-.525-.184H14.457a.715.715,0,0,0-.527.184.469.469,0,0,0-.128.351c.011.314.255.5.653.5H17.2ZM15.857,7.958H14.467a.732.732,0,0,0-.534.181.469.469,0,0,0-.13.345c0,.32.258.511.677.512h5.53a.73.73,0,0,0,.534-.181.468.468,0,0,0,.131-.345c-.005-.321-.259-.512-.678-.512H15.857ZM7.6,3.71A1.754,1.754,0,0,0,5.737,5.126,3.394,3.394,0,0,0,5.71,6.211a3.133,3.133,0,0,0,.977,2.111,1.577,1.577,0,0,0,1.025.409,1.542,1.542,0,0,0,1.11-.507A3.462,3.462,0,0,0,9.727,5.9a1.958,1.958,0,0,0-1.86-2.174C7.777,3.714,7.687,3.71,7.6,3.71Zm9.339,2.635h1.938l1.174,0a.667.667,0,0,0,.5-.2.464.464,0,0,0,.115-.369.548.548,0,0,0-.617-.472l-1.112,0H14.458a.718.718,0,0,0-.528.183.47.47,0,0,0-.128.35c.01.314.254.5.653.5h2.484ZM7.708,7.7a.555.555,0,0,1-.353-.16A2.546,2.546,0,0,1,6.788,5.21a.717.717,0,0,1,.32-.352,1.405,1.405,0,0,1,.554-.12,1.286,1.286,0,0,1,.653.181.9.9,0,0,1,.376.927A2.481,2.481,0,0,1,8.1,7.484.558.558,0,0,1,7.708,7.7Z" transform="translate(0.497 0.5)" fill="#1a73e8" stroke="rgba(0,0,0,0)" stroke-width="1"/>
</svg>
